<svg width="78" height="104" viewBox="0 0 78 104" fill="none" xmlns="http://www.w3.org/2000/svg">
<g filter="url(#filter0_ii_119_85)">
<path d="M51.6621 29.0752C66.9858 34.2652 78 48.6125 78 65.5C78 86.763 60.5391 104 39 104C17.4609 104 0 86.763 0 65.5C0 48.2426 11.5016 33.6365 27.3506 28.7461V24H51.6621V29.0752ZM39.5068 37.8184C23.9428 37.8184 11.3252 50.4359 11.3252 66C11.3252 81.5641 23.9428 94.1816 39.5068 94.1816C55.0707 94.1815 67.6875 81.564 67.6875 66C67.6875 50.436 55.0707 37.8185 39.5068 37.8184Z" fill="#D4D4D4"/>
</g>
<path d="M19 11H60L51.5 24H27.5L19 11Z" fill="url(#paint0_linear_119_85)"/>
<path d="M60 11L19 11L27.5 0L51.5 0L60 11Z" fill="url(#paint1_linear_119_85)"/>
<defs>
<filter id="filter0_ii_119_85" x="0" y="24" width="80" height="85.8" filterUnits="userSpaceOnUse" color-interpolation-filters="sRGB">
<feFlood flood-opacity="0" result="BackgroundImageFix"/>
<feBlend mode="normal" in="SourceGraphic" in2="BackgroundImageFix" result="shape"/>
<feColorMatrix in="SourceAlpha" type="matrix" values="0 0 0 0 0 0 0 0 0 0 0 0 0 0 0 0 0 0 127 0" result="hardAlpha"/>
<feOffset dy="10"/>
<feGaussianBlur stdDeviation="2.9"/>
<feComposite in2="hardAlpha" operator="arithmetic" k2="-1" k3="1"/>
<feColorMatrix type="matrix" values="0 0 0 0 1 0 0 0 0 1 0 0 0 0 1 0 0 0 0.5 0"/>
<feBlend mode="normal" in2="shape" result="effect1_innerShadow_119_85"/>
<feColorMatrix in="SourceAlpha" type="matrix" values="0 0 0 0 0 0 0 0 0 0 0 0 0 0 0 0 0 0 127 0" result="hardAlpha"/>
<feOffset dx="2" dy="1"/>
<feGaussianBlur stdDeviation="2"/>
<feComposite in2="hardAlpha" operator="arithmetic" k2="-1" k3="1"/>
<feColorMatrix type="matrix" values="0 0 0 0 0 0 0 0 0 0 0 0 0 0 0 0 0 0 0.25 0"/>
<feBlend mode="normal" in2="effect1_innerShadow_119_85" result="effect2_innerShadow_119_85"/>
</filter>
<linearGradient id="paint0_linear_119_85" x1="19" y1="17.5" x2="55.5" y2="18" gradientUnits="userSpaceOnUse">
<stop stop-color="#506FC9"/>
<stop offset="0.699001" stop-color="#7FAEEA"/>
<stop offset="1" stop-color="#95BCE9"/>
</linearGradient>
<linearGradient id="paint1_linear_119_85" x1="28" y1="6" x2="60" y2="5.5" gradientUnits="userSpaceOnUse">
<stop stop-color="#9AD6FF"/>
<stop offset="1" stop-color="#5780B5"/>
</linearGradient>
</defs>
</svg>
